<?xml version="1.0" encoding="UTF-8" standalone="no"?>
<!-- Created with Inkscape (http://www.inkscape.org/) -->

<svg
   width="160"
   height="80"
   viewBox="0 0 42.333332 21.166667"
   version="1.1"
   id="svg1"
   inkscape:version="1.3.2 (091e20e, 2023-11-25, custom)"
   sodipodi:docname="bird-plane-1-svg.svg"
   inkscape:export-filename="..\bird-plane-1.png"
   inkscape:export-xdpi="96"
   inkscape:export-ydpi="96"
   xmlns:inkscape="http://www.inkscape.org/namespaces/inkscape"
   xmlns:sodipodi="http://sodipodi.sourceforge.net/DTD/sodipodi-0.dtd"
   xmlns="http://www.w3.org/2000/svg"
   xmlns:svg="http://www.w3.org/2000/svg">
  <sodipodi:namedview
     id="namedview1"
     pagecolor="#ffffff"
     bordercolor="#000000"
     borderopacity="0.25"
     inkscape:showpageshadow="2"
     inkscape:pageopacity="0.0"
     inkscape:pagecheckerboard="0"
     inkscape:deskcolor="#d1d1d1"
     inkscape:document-units="mm"
     inkscape:zoom="2.8284271"
     inkscape:cx="113.31386"
     inkscape:cy="-22.804194"
     inkscape:window-width="1600"
     inkscape:window-height="877"
     inkscape:window-x="-8"
     inkscape:window-y="-8"
     inkscape:window-maximized="1"
     inkscape:current-layer="layer1"
     showguides="false" />
  <defs
     id="defs1" />
  <g
     inkscape:label="Layer 1"
     inkscape:groupmode="layer"
     id="layer1">
    <g
       id="g25"
       inkscape:label="beak">
      <path
         style="display:inline;fill:#000000;fill-opacity:1;stroke-width:0.352089"
         d="m 2.0937888,12.370137 c 0,0 2.212696,-0.312873 3.3174977,-0.348304 0.788996,-0.02532 2.3607188,0.09708 2.3607188,0.09708 l 0.5784775,-0.105558 0.1767019,-0.801957 c 0,0 -0.1525164,-0.06162 -0.2310195,-0.06963 -1.3192823,-0.134394 -2.7627527,-0.11127 -4.0946462,0.215854 -0.7416871,0.182166 -1.9065527,0.679455 -2.0999984,0.955612 -0.00743,0.01053 -0.00773,0.05688 -0.00773,0.05688 z"
         id="path25"
         sodipodi:nodetypes="cscccsascc"
         inkscape:label="bot"
         inkscape:transform-center-x="2.8131075"
         inkscape:transform-center-y="0.25619254" />
      <path
         style="display:inline;fill:#000000;stroke-width:0.256831"
         d="m 8.7588776,8.4755728 c 0,0 -3.5299317,0.966908 -5.0536802,1.9315112 -0.8830102,0.558986 -1.4085516,1.099852 -1.6284322,1.906059 -0.00477,0.0175 0.00944,0.05358 0.00944,0.05358 0,0 1.5237678,-0.559676 2.4168466,-0.666418 1.2971535,-0.155038 4.224459,-0.442224 4.224459,-0.442224 L 9.006928,10.784135 9.2863408,9.8428238 Z"
         id="path1"
         sodipodi:nodetypes="csacscccc"
         inkscape:label="top" />
    </g>
    <g
       id="g17"
       inkscape:label="legR"
       inkscape:transform-center-x="-1.895524"
       inkscape:transform-center-y="3.4128766"
       transform="matrix(0.84355625,-0.27971128,0.27971128,0.84355625,0.12794663,9.7511846)">
      <path
         style="fill:#141414;fill-opacity:1;stroke-width:0.264583"
         d="m 28.620595,14.146751 c 0.294631,0.321681 0.678141,0.557958 1.063051,0.763216 0.573328,0.305735 1.189857,0.812453 1.826265,0.681443 0.283244,-0.05831 0.509404,-0.335445 0.626928,-0.59967 0.1256,-0.282381 0.0068,-0.618386 0.02726,-0.926762 0.03507,-0.528633 0.210679,-1.053253 0.163551,-1.580947 -0.03786,-0.423898 -0.165644,-0.845135 -0.354349,-1.226597 -0.135367,-0.27364 -0.258711,-0.63035 -0.545155,-0.735958 -0.454949,-0.167733 -0.975358,0.127816 -1.417401,0.327092 -0.641288,0.289096 -1.370156,0.614745 -1.717236,1.226597 -0.220399,0.388531 -0.209449,0.900372 -0.109029,1.335628 0.06411,0.277858 0.243514,0.525674 0.436115,0.735958 z"
         id="path12"
         sodipodi:nodetypes="ssssssssssss" />
      <path
         style="fill:#c24800;fill-opacity:1;stroke-width:0.264583"
         d="m 32.129944,14.95671 c 0,0 0.445579,0.309878 0.636045,0.501127 0.1841,0.184858 0.481851,0.616771 0.481851,0.616771 v 0.385483 l -0.558948,0.115644 -1.27209,-1.060076 z"
         id="path13"
         sodipodi:nodetypes="csccccc" />
      <path
         style="fill:#c24800;fill-opacity:1;stroke-width:0.264583"
         d="m 33.267115,16.074608 0.289113,0.346934 c 0,0 -0.111934,0.326973 -0.231291,0.443305 -0.732523,0.713957 -1.9023,0.785994 -2.756196,1.349188 -0.50959,0.336104 -0.78139,1.034021 -1.381859,1.143952 -0.14794,0.02708 -0.42991,-0.10315 -0.42991,-0.10315 l 0.03855,-0.462579 c 0,0 0.869158,-0.805445 1.368462,-1.117898 0.804127,-0.503204 1.772643,-0.701443 2.58273,-1.194995 0.187671,-0.11434 0.520401,-0.404757 0.520401,-0.404757 z"
         id="path14"
         sodipodi:nodetypes="ccsssccssc" />
      <path
         style="fill:#c24800;fill-opacity:1;stroke-width:0.303937"
         d="m 29.288409,19.022611 c 0,0 -0.987614,-0.38802 -1.458219,-0.242049 -0.472408,0.14653 -1.069358,1.028706 -1.069358,1.028706 0,0 -0.16605,0.322213 -0.0612,0.434452 0.128278,-0.01964 0.433849,-0.2983 0.433849,-0.2983 0,0 0.452121,-0.617537 0.793919,-0.726145 0.383913,-0.12199 1.19898,0.15128 1.19898,0.15128 z"
         id="path15"
         sodipodi:nodetypes="cscccscc" />
      <path
         style="fill:#c24800;fill-opacity:1;stroke-width:0.316356"
         d="m 29.094543,18.752824 c 0,0 -1.040083,-0.548305 -1.589116,-0.47965 -0.512186,0.06405 -1.326636,0.798729 -1.326636,0.798729 0,0 -0.193915,0.365691 -0.136806,0.450668 0.0932,0.06113 0.532971,-0.25723 0.532971,-0.25723 0,0 0.607269,-0.508937 0.979902,-0.557142 0.449105,-0.0581 1.312989,0.348846 1.312989,0.348846 z"
         id="path16"
         inkscape:transform-center-x="1.3551573"
         inkscape:transform-center-y="-0.020306689"
         sodipodi:nodetypes="cscccscc" />
      <path
         style="fill:#c24800;fill-opacity:1;stroke-width:0.316623"
         d="m 29.285773,18.970676 c 0,0 0.903976,-0.319527 1.367536,-0.279607 0.356299,0.03068 0.917988,0.424999 0.917988,0.424999 0,0 0.188136,0.224094 0.172524,0.300402 -0.07107,0.01935 -0.341342,-0.0879 -0.341342,-0.0879 0,0 -0.471242,-0.290395 -0.73728,-0.31316 -0.503085,-0.04305 -1.474559,0.346713 -1.474559,0.346713 z"
         id="path17"
         sodipodi:nodetypes="cscccscc" />
    </g>
    <g
       id="g34"
       inkscape:label="wingR"
       transform="matrix(1.2440631,0.03000538,-0.02858457,1.1851546,-4.6357975,-0.68706139)"
       style="display:inline;fill:#040404;fill-opacity:1"
       inkscape:transform-center-x="-8.7894465"
       inkscape:transform-center-y="-4.7403749">
      <path
         style="fill:#040404;fill-opacity:1;stroke-width:0.257649"
         d="M 19.143778,9.300417 20.358224,6.7591103 21.5222,5.1078561 23.638517,4.4153949 c 0,0 2.409967,-0.5572623 3.59774,-0.9055264 1.123461,-0.3294075 2.198307,-0.8356369 3.3332,-1.1185916 0.616672,-0.1537505 1.459912,-0.4709084 1.878109,-0.3120089 0.127045,0.048272 -0.06882,0.2896924 -0.166105,0.3881142 -0.374895,0.3792842 -0.93263,0.4294605 -1.447462,0.616356 -0.798697,0.2899448 -1.631565,0.466647 -2.433767,0.7457279 -0.875176,0.3044681 -2.59249,1.0120588 -2.59249,1.0120588 L 22.897805,5.8535838 22.315819,6.8123764 21.42352,8.0590379 c 0,0 -1.018874,1.0857233 -1.529407,1.2625256 -0.253267,0.087709 -0.750335,-0.021147 -0.750335,-0.021147 z"
         id="path28"
         sodipodi:nodetypes="ccccsasassccccsc" />
      <path
         style="fill:#040404;fill-opacity:1;stroke-width:0.264583"
         d="M 18.753304,9.1040748 C 18.2921,7.8841372 20.736431,4.5347801 20.736431,4.5347801 c 0,0 0.129519,-0.19911 0.21744,-0.2740472 0.155118,-0.1322105 0.344418,-0.2159515 0.529561,-0.2948337 1.472851,-0.6275245 3.072657,-0.8299091 4.578321,-1.4000778 7.627318,-2.8883339 12.677364,-3.12372785 -1.366269,1.6548288 -0.617891,0.2102467 -1.240925,0.4045528 -1.853524,0.631222 -0.458509,0.1696542 -0.971193,0.2428653 -1.362885,0.5451541 -0.568038,0.438384 -1.30837,1.7444934 -1.30837,1.7444934 l -0.872247,2.1806167 c 0,0 -0.473423,-0.028326 -0.545154,-0.2180616 z"
         id="path29"
         sodipodi:nodetypes="scssssssccs" />
      <path
         style="display:inline;fill:#040404;fill-opacity:1;stroke-width:0.256029"
         d="m 22.000704,6.4518896 6.030329,-1.6555152 2.740303,-0.8977328 1.475548,-0.4752704 c 0,0 0.224758,-0.2541294 0.158095,-0.3696549 -0.145871,-0.2527929 -0.84317,-0.052807 -0.84317,-0.052807 l -9.184003,2.746137 z"
         id="path30"
         sodipodi:nodetypes="ccccsccc" />
      <path
         style="display:inline;fill:#040404;fill-opacity:1;stroke-width:0.264583"
         d="m 22.024229,6.9234581 2.344163,-0.4906388 2.603452,-0.597109 c 0,0 1.280726,-0.285798 1.978568,-0.4335626 0.558683,-0.1182985 1.3056,-0.3377596 1.636824,-0.5236581 0.331224,-0.1858985 0.298915,-0.180394 0.419662,-0.3607459 0.133388,-0.1992351 -1.496939,0.1040447 -2.237786,0.2213916 -0.508875,0.080603 -0.956818,0.2485554 -1.511404,0.3307986 -0.887641,0.1316342 -2.671254,0.3270924 -2.671254,0.3270924 l -2.289648,0.654185 z"
         id="path31"
         sodipodi:nodetypes="cccscsasccc" />
      <path
         style="fill:#040404;fill-opacity:1;stroke-width:0.213551"
         d="m 21.27958,7.3348418 c 0,0 2.709012,-0.5208296 2.873707,-0.5074833 0.164695,0.013347 1.797892,0.2283822 2.182299,-0.340391 0.07803,-0.1154583 -0.02318,-0.3151796 -0.134683,-0.3870863 -0.586726,-0.3783837 -2.051275,0.2569656 -2.051275,0.2569656 l -2.197213,0.010032 z"
         id="path32"
         inkscape:transform-center-x="-2.729372"
         inkscape:transform-center-y="-0.28121565"
         sodipodi:nodetypes="csssccc" />
      <path
         style="fill:#040404;fill-opacity:1;stroke-width:0.234394"
         d="m 21.116237,7.8853215 c 0,0 1.961523,-0.1461629 2.949007,-0.2279396 0.389435,-0.03225 0.63974,-0.033581 0.920991,-0.1702172 0.157447,-0.07649 0.28209,-0.2927395 0.17764,-0.3829359 C 24.906214,6.88173 23.499204,6.6405163 23.499204,6.6405163 l -0.92046,0.4261794 -1.04038,0.1948074 z"
         id="path33"
         inkscape:transform-center-x="-2.0796109"
         inkscape:transform-center-y="0.043157894"
         sodipodi:nodetypes="cssscccc" />
      <path
         style="fill:#040404;fill-opacity:1;stroke-width:0.248257"
         d="m 20.641078,8.4744333 1.337044,-0.153664 c 0,0 1.151103,0.1885994 1.633216,-0.078115 0.147118,-0.081388 0.367492,-0.2583391 0.30044,-0.4180855 C 23.773791,7.4958226 23.329096,7.7819478 22.889668,7.722863 22.450241,7.663778 20.778937,7.855858 20.778937,7.855858 Z"
         id="path34"
         sodipodi:nodetypes="ccssscc" />
    </g>
    <g
       id="g18"
       inkscape:label="body"
       style="display:inline;fill:#090909;fill-opacity:1">
      <path
         style="fill:#090909;fill-opacity:1;stroke-width:0.256831"
         d="m 10.63747,12.73548 c 0,0 1.929957,0.83174 2.857579,1.322954 0.636276,0.336934 1.852134,1.11128 1.852134,1.11128 0,0 2.751742,-0.687936 3.122168,-0.952526 0.370427,-0.264591 1.481708,-2.328397 1.481708,-2.328397 L 20.427322,9.8779029 20.321486,7.9728505 c 0,0 -2.281473,0.013837 -3.381212,-0.2461527 -1.139646,-0.2694246 -3.2472,-1.3409494 -3.2472,-1.3409494 z"
         id="path3"
         sodipodi:nodetypes="cscscccscc" />
      <path
         style="fill:#090909;fill-opacity:1;stroke-width:0.269312"
         d="M 28.385875,7.1261605 40.663201,4.4802548 40.721382,5.1681903 36.182845,6.5440615 40.139517,5.538617 40.081338,6.5440615 36.124664,7.5495056 38.56849,7.1790788 38.452119,8.0257685 27.571268,11.677118 Z"
         id="path5" />
      <path
         style="fill:#090909;fill-opacity:1;stroke-width:0.256831"
         d="M 6.3259016,9.2454284 C 6.4435867,9.1884241 6.9857812,8.5016605 7.3379549,8.1512126 7.7129653,7.7780398 8.0623312,7.4358683 8.5084051,7.0792689 8.9544791,6.7226694 9.4528866,6.2652771 10.018937,6.0296462 c 0.566064,-0.2356367 1.464924,-0.365689 1.809191,-0.3322748 1.333918,0.1294689 2.815728,0.8655678 3.466137,2.0373474 0.329694,0.5939791 0.161986,1.3928882 -0.05291,2.0373477 -0.26011,0.7800425 -0.825317,1.4523695 -1.42879,2.0108885 C 13.284158,12.271996 12.65195,12.674907 11.9532,12.84846 10.993149,13.086914 7.8132852,12.188512 7.7359314,12.103663 7.7227736,12.022494 8.3604729,11.622725 8.6078771,10.961353 8.8552812,10.299981 8.7101866,9.6618511 8.4565704,9.5222564 8.2746693,9.4221349 6.6986333,9.5944158 6.3259016,9.2454284 Z"
         id="path2"
         sodipodi:nodetypes="cazassssccssc" />
      <path
         style="display:inline;fill:#090909;fill-opacity:1;stroke-width:0.256831"
         d="m 15.267803,15.123407 c 0,0 0.952922,0.495447 1.45525,0.681325 1.545254,0.571796 3.130074,1.100421 4.762631,1.322952 1.55552,0.21203 3.146755,0.147527 4.709712,0 1.126254,-0.106307 2.31811,-0.136981 3.333841,-0.635017 1.267928,-0.621694 2.456936,-1.588764 3.175087,-2.80466 0.905373,-1.532881 1.164199,-5.2124342 1.164199,-5.2124342 0,0 -1.201854,-0.2155755 -1.772757,-0.4233453 -0.24092,-0.087678 -0.455482,-0.2358223 -0.687935,-0.3439677 -0.444156,-0.2066371 -0.868768,-0.4874817 -1.349414,-0.5820991 -0.934749,-0.1840098 -1.906167,0.00355 -2.857576,0.052918 -1.449739,0.075219 -4.339286,0.3704268 -4.339286,0.3704268 l -2.857578,0.5291811 z"
         id="path4"
         sodipodi:nodetypes="cssssscssssccc" />
    </g>
    <g
       id="g11"
       inkscape:label="legL"
       inkscape:transform-center-x="-1.3556617"
       inkscape:transform-center-y="3.4616646"
       transform="matrix(0.87005709,-0.18118003,0.18118003,0.87005709,0.57848369,6.508127)"
       style="display:inline">
      <path
         style="fill:#101010;fill-opacity:1;stroke-width:0.264583"
         d="m 28.620595,14.146751 c 0.294631,0.321681 0.678141,0.557958 1.063051,0.763216 0.573328,0.305735 1.189857,0.812453 1.826265,0.681443 0.283244,-0.05831 0.509404,-0.335445 0.626928,-0.59967 0.1256,-0.282381 0.0068,-0.618386 0.02726,-0.926762 0.03507,-0.528633 0.210679,-1.053253 0.163551,-1.580947 -0.03786,-0.423898 -0.165644,-0.845135 -0.354349,-1.226597 -0.135367,-0.27364 -0.258711,-0.63035 -0.545155,-0.735958 -0.454949,-0.167733 -0.975358,0.127816 -1.417401,0.327092 -0.641288,0.289096 -1.370156,0.614745 -1.717236,1.226597 -0.220399,0.388531 -0.209449,0.900372 -0.109029,1.335628 0.06411,0.277858 0.243514,0.525674 0.436115,0.735958 z"
         id="path6"
         sodipodi:nodetypes="ssssssssssss" />
      <path
         style="fill:#e45500;fill-opacity:1;stroke-width:0.264583"
         d="m 32.129944,14.95671 c 0,0 0.445579,0.309878 0.636045,0.501127 0.1841,0.184858 0.481851,0.616771 0.481851,0.616771 v 0.385483 l -0.558948,0.115644 -1.27209,-1.060076 z"
         id="path7"
         sodipodi:nodetypes="csccccc" />
      <path
         style="fill:#e45500;fill-opacity:1;stroke-width:0.264583"
         d="m 33.267115,16.074608 0.289113,0.346934 c 0,0 -0.111934,0.326973 -0.231291,0.443305 -0.732523,0.713957 -1.9023,0.785994 -2.756196,1.349188 -0.50959,0.336104 -0.78139,1.034021 -1.381859,1.143952 -0.14794,0.02708 -0.42991,-0.10315 -0.42991,-0.10315 l 0.03855,-0.462579 c 0,0 0.869158,-0.805445 1.368462,-1.117898 0.804127,-0.503204 1.772643,-0.701443 2.58273,-1.194995 0.187671,-0.11434 0.520401,-0.404757 0.520401,-0.404757 z"
         id="path8"
         sodipodi:nodetypes="ccsssccssc" />
      <path
         style="fill:#e45500;fill-opacity:1;stroke-width:0.303937"
         d="m 29.288409,19.022611 c 0,0 -0.987614,-0.38802 -1.458219,-0.242049 -0.472408,0.14653 -1.069358,1.028706 -1.069358,1.028706 0,0 -0.16605,0.322213 -0.0612,0.434452 0.128278,-0.01964 0.433849,-0.2983 0.433849,-0.2983 0,0 0.452121,-0.617537 0.793919,-0.726145 0.383913,-0.12199 1.19898,0.15128 1.19898,0.15128 z"
         id="path9"
         sodipodi:nodetypes="cscccscc" />
      <path
         style="fill:#e45500;fill-opacity:1;stroke-width:0.316356"
         d="m 29.094543,18.752824 c 0,0 -1.040083,-0.548305 -1.589116,-0.47965 -0.512186,0.06405 -1.326636,0.798729 -1.326636,0.798729 0,0 -0.193915,0.365691 -0.136806,0.450668 0.0932,0.06113 0.532971,-0.25723 0.532971,-0.25723 0,0 0.607269,-0.508937 0.979902,-0.557142 0.449105,-0.0581 1.312989,0.348846 1.312989,0.348846 z"
         id="path10"
         inkscape:transform-center-x="1.3551573"
         inkscape:transform-center-y="-0.020306689"
         sodipodi:nodetypes="cscccscc" />
      <path
         style="fill:#e45500;fill-opacity:1;stroke-width:0.316623"
         d="m 29.285773,18.970676 c 0,0 0.903976,-0.319527 1.367536,-0.279607 0.356299,0.03068 0.917988,0.424999 0.917988,0.424999 0,0 0.188136,0.224094 0.172524,0.300402 -0.07107,0.01935 -0.341342,-0.0879 -0.341342,-0.0879 0,0 -0.471242,-0.290395 -0.73728,-0.31316 -0.503085,-0.04305 -1.474559,0.346713 -1.474559,0.346713 z"
         id="path11"
         sodipodi:nodetypes="cscccscc" />
    </g>
    <g
       id="g24"
       inkscape:label="wingL"
       transform="matrix(1.2444249,0,0,1.1854993,-4.775138,0.14946268)"
       style="display:inline;fill:#111111;fill-opacity:1"
       inkscape:transform-center-x="-8.6651043"
       inkscape:transform-center-y="-4.9609376">
      <path
         style="fill:#111111;fill-opacity:1;stroke-width:0.257649"
         d="M 19.143778,9.300417 20.358224,6.7591103 21.5222,5.1078561 23.638517,4.4153949 c 0,0 2.409967,-0.5572623 3.59774,-0.9055264 1.123461,-0.3294075 2.198307,-0.8356369 3.3332,-1.1185916 0.616672,-0.1537505 1.459912,-0.4709084 1.878109,-0.3120089 0.127045,0.048272 -0.06882,0.2896924 -0.166105,0.3881142 -0.374895,0.3792842 -0.93263,0.4294605 -1.447462,0.616356 -0.798697,0.2899448 -1.631565,0.466647 -2.433767,0.7457279 -0.875176,0.3044681 -2.59249,1.0120588 -2.59249,1.0120588 L 22.897805,5.8535838 22.315819,6.8123764 21.42352,8.0590379 c 0,0 -1.018874,1.0857233 -1.529407,1.2625256 -0.253267,0.087709 -0.750335,-0.021147 -0.750335,-0.021147 z"
         id="path19"
         sodipodi:nodetypes="ccccsasassccccsc" />
      <path
         style="fill:#111111;fill-opacity:1;stroke-width:0.264583"
         d="M 18.753304,9.1040748 C 18.2921,7.8841372 20.736431,4.5347801 20.736431,4.5347801 c 0,0 0.129519,-0.19911 0.21744,-0.2740472 0.155118,-0.1322105 0.344418,-0.2159515 0.529561,-0.2948337 1.472851,-0.6275245 3.072657,-0.8299091 4.578321,-1.4000778 7.627318,-2.8883339 12.677364,-3.12372785 -1.366269,1.6548288 -0.617891,0.2102467 -1.240925,0.4045528 -1.853524,0.631222 -0.458509,0.1696542 -0.971193,0.2428653 -1.362885,0.5451541 -0.568038,0.438384 -1.30837,1.7444934 -1.30837,1.7444934 l -0.872247,2.1806167 c 0,0 -0.473423,-0.028326 -0.545154,-0.2180616 z"
         id="path18"
         sodipodi:nodetypes="scssssssccs" />
      <path
         style="display:inline;fill:#111111;fill-opacity:1;stroke-width:0.256029"
         d="m 22.000704,6.4518896 6.030329,-1.6555152 2.740303,-0.8977328 1.475548,-0.4752704 c 0,0 0.224758,-0.2541294 0.158095,-0.3696549 -0.145871,-0.2527929 -0.84317,-0.052807 -0.84317,-0.052807 l -9.184003,2.746137 z"
         id="path20"
         sodipodi:nodetypes="ccccsccc" />
      <path
         style="display:inline;fill:#111111;fill-opacity:1;stroke-width:0.264583"
         d="m 22.024229,6.9234581 2.344163,-0.4906388 2.603452,-0.597109 c 0,0 1.280726,-0.285798 1.978568,-0.4335626 0.558683,-0.1182985 1.3056,-0.3377596 1.636824,-0.5236581 0.331224,-0.1858985 0.298915,-0.180394 0.419662,-0.3607459 0.133388,-0.1992351 -1.496939,0.1040447 -2.237786,0.2213916 -0.508875,0.080603 -0.956818,0.2485554 -1.511404,0.3307986 -0.887641,0.1316342 -2.671254,0.3270924 -2.671254,0.3270924 l -2.289648,0.654185 z"
         id="path21"
         sodipodi:nodetypes="cccscsasccc" />
      <path
         style="fill:#111111;fill-opacity:1;stroke-width:0.213551"
         d="m 21.27958,7.3348418 c 0,0 2.709012,-0.5208296 2.873707,-0.5074833 0.164695,0.013347 1.797892,0.2283822 2.182299,-0.340391 0.07803,-0.1154583 -0.02318,-0.3151796 -0.134683,-0.3870863 -0.586726,-0.3783837 -2.051275,0.2569656 -2.051275,0.2569656 l -2.197213,0.010032 z"
         id="path22"
         inkscape:transform-center-x="-2.729372"
         inkscape:transform-center-y="-0.28121565"
         sodipodi:nodetypes="csssccc" />
      <path
         style="fill:#111111;fill-opacity:1;stroke-width:0.234394"
         d="m 21.116237,7.8853215 c 0,0 1.961523,-0.1461629 2.949007,-0.2279396 0.389435,-0.03225 0.63974,-0.033581 0.920991,-0.1702172 0.157447,-0.07649 0.28209,-0.2927395 0.17764,-0.3829359 C 24.906214,6.88173 23.499204,6.6405163 23.499204,6.6405163 l -0.92046,0.4261794 -1.04038,0.1948074 z"
         id="path23"
         inkscape:transform-center-x="-2.0796109"
         inkscape:transform-center-y="0.043157894"
         sodipodi:nodetypes="cssscccc" />
      <path
         style="fill:#111111;fill-opacity:1;stroke-width:0.248257"
         d="m 20.641078,8.4744333 1.337044,-0.153664 c 0,0 1.151103,0.1885994 1.633216,-0.078115 0.147118,-0.081388 0.367492,-0.2583391 0.30044,-0.4180855 C 23.773791,7.4958226 23.329096,7.7819478 22.889668,7.722863 22.450241,7.663778 20.778937,7.855858 20.778937,7.855858 Z"
         id="path24"
         sodipodi:nodetypes="ccssscc" />
    </g>
    <ellipse
       style="fill:#000000;fill-opacity:1;stroke-width:0.264583"
       id="path26"
       cx="10.839648"
       cy="8.3839846"
       rx="0.60358071"
       ry="0.57877606" />
    <ellipse
       style="fill:#ffffff;fill-opacity:1;stroke-width:0.264583"
       id="path27"
       cx="10.593896"
       cy="8.1646662"
       rx="0.21047476"
       ry="0.19001193" />
  </g>
</svg>
