<?xml version="1.0" encoding="UTF-8" standalone="no"?>
<!-- Created with Inkscape (http://www.inkscape.org/) -->

<svg
   width="160"
   height="120"
   viewBox="0 0 42.333332 31.750001"
   version="1.1"
   id="svg1"
   inkscape:version="1.3.2 (091e20e, 2023-11-25, custom)"
   sodipodi:docname="bird-tst-diveplane-2-svg.svg"
   inkscape:export-filename="..\bird-tst-diveplane-1.png"
   inkscape:export-xdpi="96"
   inkscape:export-ydpi="96"
   xmlns:inkscape="http://www.inkscape.org/namespaces/inkscape"
   xmlns:sodipodi="http://sodipodi.sourceforge.net/DTD/sodipodi-0.dtd"
   xmlns="http://www.w3.org/2000/svg"
   xmlns:svg="http://www.w3.org/2000/svg">
  <sodipodi:namedview
     id="namedview1"
     pagecolor="#ffffff"
     bordercolor="#000000"
     borderopacity="0.25"
     inkscape:showpageshadow="2"
     inkscape:pageopacity="0.0"
     inkscape:pagecheckerboard="0"
     inkscape:deskcolor="#d1d1d1"
     inkscape:document-units="mm"
     inkscape:zoom="2.8284271"
     inkscape:cx="91.216775"
     inkscape:cy="40.835417"
     inkscape:window-width="1600"
     inkscape:window-height="877"
     inkscape:window-x="-8"
     inkscape:window-y="-8"
     inkscape:window-maximized="1"
     inkscape:current-layer="layer1"
     showguides="false" />
  <defs
     id="defs1">
    <clipPath
       clipPathUnits="userSpaceOnUse"
       id="clipPath39">
      <g
         id="g43"
         inkscape:label="body"
         style="display:inline;fill:#090909;fill-opacity:1"
         transform="rotate(-8.7057284,32.893853,8.2999121)">
        <path
           style="fill:#090909;fill-opacity:1;stroke-width:0.256831"
           d="m 10.63747,12.73548 c 0,0 1.929957,0.83174 2.857579,1.322954 0.636276,0.336934 1.852134,1.11128 1.852134,1.11128 0,0 2.751742,-0.687936 3.122168,-0.952526 0.370427,-0.264591 1.481708,-2.328397 1.481708,-2.328397 0,0 0.371214,-1.422643 0.430903,-2.1516674 0.04802,-0.586474 -0.06048,-1.7642731 -0.06048,-1.7642731 0,0 -4.205024,-1.0980761 -5.304763,-1.3580658 C 13.877073,6.3453601 13.69307,6.3857484 13.69307,6.3857484 Z"
           id="path40"
           sodipodi:nodetypes="cscscscscc" />
        <path
           style="fill:#090909;fill-opacity:1;stroke-width:0.269312"
           d="M 28.385875,7.1261605 40.663201,4.4802548 40.721382,5.1681903 36.182845,6.5440615 40.139517,5.538617 40.081338,6.5440615 36.124664,7.5495056 38.56849,7.1790788 38.452119,8.0257685 27.571268,11.677118 Z"
           id="path41"
           sodipodi:nodetypes="ccccccccccc" />
        <path
           style="fill:#090909;fill-opacity:1;stroke-width:0.256831"
           d="M 6.3259016,9.2454284 C 6.4435867,9.1884241 6.9857812,8.5016605 7.3379549,8.1512126 7.7129653,7.7780398 8.0623312,7.4358683 8.5084051,7.0792689 8.9544791,6.7226694 9.4589497,6.2793443 10.018937,6.0296462 c 0.708783,-0.3160461 1.92173,-0.5678157 2.265997,-0.5344015 1.333918,0.1294689 2.358922,1.0676945 3.009331,2.2394741 0.329694,0.5939791 0.161986,1.3928882 -0.05291,2.0373477 -0.26011,0.7800425 -0.825317,1.4523695 -1.42879,2.0108885 C 13.284158,12.271996 12.65195,12.674907 11.9532,12.84846 10.993149,13.086914 7.8132852,12.188512 7.7359314,12.103663 7.7227736,12.022494 8.3604729,11.622725 8.6078771,10.961353 8.8552812,10.299981 8.7101866,9.6618511 8.4565704,9.5222564 8.2746693,9.4221349 6.6986333,9.5944158 6.3259016,9.2454284 Z"
           id="path42"
           sodipodi:nodetypes="cazassssccssc" />
        <path
           style="display:inline;fill:#090909;fill-opacity:1;stroke-width:0.256831"
           d="m 15.267803,15.123407 c 0,0 0.952922,0.495447 1.45525,0.681325 1.545254,0.571796 3.130074,1.100421 4.762631,1.322952 1.55552,0.21203 3.146755,0.147527 4.709712,0 1.126254,-0.106307 2.31811,-0.136981 3.333841,-0.635017 1.267928,-0.621694 2.456936,-1.588764 3.175087,-2.80466 0.905373,-1.532881 1.164199,-5.2124342 1.164199,-5.2124342 0,0 -1.201854,-0.2155755 -1.772757,-0.4233453 C 31.854846,7.9645495 31.640284,7.8164052 31.407831,7.7082598 30.963675,7.5016227 30.539063,7.2207781 30.058417,7.1261607 29.123668,6.9421509 29.166778,3.594308 28.215369,3.643676 26.76563,3.718895 23.755298,4.1848771 23.755298,4.1848771 l -3.751321,3.8938095 z"
           id="path43"
           sodipodi:nodetypes="cssssscssssccc" />
      </g>
    </clipPath>
  </defs>
  <g
     inkscape:label="Layer 1"
     inkscape:groupmode="layer"
     id="layer1"
     transform="rotate(-1.4490084,20.860549,14.292243)">
    <g
       id="g25"
       inkscape:label="beak"
       transform="rotate(-16.89989,44.659569,11.803052)"
       inkscape:transform-center-x="14.401222"
       inkscape:transform-center-y="6.0422758">
      <path
         style="display:inline;fill:#000000;fill-opacity:1;stroke-width:0.352089"
         d="m 2.5121458,14.115579 c 0,0 2.023352,-0.948665 3.0690727,-1.306867 0.7467988,-0.255828 2.2852012,-0.600228 2.2852012,-0.600228 L 8.3884203,11.937754 8.6371126,10.9449 c 0,0 -0.4790946,0.160245 -0.5564854,0.175605 -1.3006067,0.258825 -2.6736868,0.704687 -3.8508615,1.408397 -0.6555297,0.391877 -1.6230815,1.20922 -1.7269325,1.529997 -0.00401,0.01226 0.00931,0.05664 0.00931,0.05664 z"
         id="path25"
         sodipodi:nodetypes="cscccsascc"
         inkscape:label="bot"
         inkscape:transform-center-x="1.7311861"
         inkscape:transform-center-y="2.0100364" />
      <path
         style="display:inline;fill:#000000;stroke-width:0.256831"
         d="m 8.7588776,8.4755728 c 0,0 -3.5299317,0.966908 -5.0536802,1.9315112 -0.8830102,0.558986 -1.4085516,1.099852 -1.6284322,1.906059 -0.00477,0.0175 0.00944,0.05358 0.00944,0.05358 0,0 1.5237678,-0.559676 2.4168466,-0.666418 1.2971535,-0.155038 4.224459,-0.442224 4.224459,-0.442224 L 9.006928,10.784135 9.2863408,9.8428238 Z"
         id="path1"
         sodipodi:nodetypes="csacscccc"
         inkscape:label="top" />
    </g>
    <g
       id="g17"
       inkscape:label="legR"
       inkscape:transform-center-x="-9.3709108"
       inkscape:transform-center-y="2.0797015"
       transform="matrix(0.72581437,-0.51285382,0.51285382,0.72581437,0.86756478,22.75213)"
       style="fill:#474747;fill-opacity:1">
      <g
         id="g3"
         inkscape:label="thighPartR">
        <path
           style="fill:#474747;fill-opacity:1;stroke-width:0.264583"
           d="m 28.620595,14.146751 c 0.294631,0.321681 0.678141,0.557958 1.063051,0.763216 0.573328,0.305735 1.189857,0.812453 1.826265,0.681443 0.283244,-0.05831 0.509404,-0.335445 0.626928,-0.59967 0.1256,-0.282381 0.0068,-0.618386 0.02726,-0.926762 0.03507,-0.528633 0.210679,-1.053253 0.163551,-1.580947 -0.03786,-0.423898 -0.165644,-0.845135 -0.354349,-1.226597 -0.135367,-0.27364 -0.258711,-0.63035 -0.545155,-0.735958 -0.454949,-0.167733 -0.975358,0.127816 -1.417401,0.327092 -0.641288,0.289096 -1.370156,0.614745 -1.717236,1.226597 -0.220399,0.388531 -0.209449,0.900372 -0.109029,1.335628 0.06411,0.277858 0.243514,0.525674 0.436115,0.735958 z"
           id="path12"
           sodipodi:nodetypes="ssssssssssss" />
        <path
           style="fill:#474747;fill-opacity:1;stroke-width:0.264583"
           d="m 32.129944,14.95671 c 0,0 0.445579,0.309878 0.636045,0.501127 0.1841,0.184858 0.481851,0.616771 0.481851,0.616771 v 0.385483 l -0.558948,0.115644 -1.27209,-1.060076 z"
           id="path13"
           sodipodi:nodetypes="csccccc" />
      </g>
      <g
         id="g4"
         inkscape:label="legPartR"
         inkscape:transform-center-x="2.1918726"
         inkscape:transform-center-y="2.4069279"
         transform="rotate(-7.8873248,33.087491,16.620132)">
        <path
           style="fill:#474747;fill-opacity:1;stroke-width:0.264583"
           d="m 33.426346,16.189602 0.151257,0.425524 c 0,0 -0.218127,0.268069 -0.370357,0.335932 -0.934268,0.416495 -2.05675,0.07945 -3.052747,0.312501 -0.594394,0.139083 -1.090832,0.699897 -1.692259,0.595333 -0.148174,-0.02577 -0.36769,-0.245493 -0.36769,-0.245493 l 0.196182,-0.420688 c 0,0 1.094114,-0.455071 1.670676,-0.575521 0.92855,-0.193984 1.90585,-0.04497 2.836653,-0.227831 0.215637,-0.04236 0.628285,-0.199757 0.628285,-0.199757 z"
           id="path14"
           sodipodi:nodetypes="ccsssccssc"
           inkscape:transform-center-x="1.5229053"
           inkscape:transform-center-y="1.1990311" />
        <path
           style="fill:#474747;fill-opacity:1;stroke-width:0.303937"
           d="m 28.67351,17.579339 c 0,0 -0.792426,-0.705693 -1.284472,-0.731521 -0.493931,-0.02593 -1.359184,0.595299 -1.359184,0.595299 0,0 -0.267257,0.244883 -0.207704,0.386462 0.127153,0.02595 0.510251,-0.129812 0.510251,-0.129812 0,0 0.637824,-0.423021 0.99609,-0.406693 0.402411,0.01834 1.072635,0.556682 1.072635,0.556682 z"
           id="path15"
           sodipodi:nodetypes="cscccscc"
           inkscape:transform-center-x="4.1392626"
           inkscape:transform-center-y="3.16312" />
        <path
           style="fill:#474747;fill-opacity:1;stroke-width:0.316356"
           d="m 28.584934,17.259146 c 0,0 -0.786211,-0.874233 -1.3251,-0.999732 -0.502723,-0.117075 -1.521028,0.290523 -1.521028,0.290523 0,0 -0.308441,0.276039 -0.284252,0.375524 0.0663,0.0896 0.589048,-0.05699 0.589048,-0.05699 0,0 0.745828,-0.267458 1.112132,-0.183789 0.441478,0.100837 1.111265,0.781488 1.111265,0.781488 z"
           id="path16"
           inkscape:transform-center-x="4.5526801"
           inkscape:transform-center-y="2.6964494"
           sodipodi:nodetypes="cscccscc" />
        <path
           style="fill:#474747;fill-opacity:1;stroke-width:0.316623"
           d="m 28.689001,17.529698 c 0,0 0.958699,0.01289 1.379834,0.2107 0.323691,0.152033 0.714306,0.716304 0.714306,0.716304 0,0 0.09901,0.275339 0.05796,0.341536 -0.07338,-0.0064 -0.289865,-0.200548 -0.289865,-0.200548 0,0 -0.3417,-0.435476 -0.58344,-0.548861 -0.457137,-0.214415 -1.503463,-0.184757 -1.503463,-0.184757 z"
           id="path17"
           sodipodi:nodetypes="cscccscc"
           inkscape:transform-center-x="1.9602653"
           inkscape:transform-center-y="2.4875239" />
      </g>
    </g>
    <g
       id="g34"
       inkscape:label="wingR"
       transform="matrix(0.84661616,-0.24339769,0.21430855,1.1233972,2.1482138,12.599455)"
       style="display:inline;fill:#070707;fill-opacity:1"
       inkscape:transform-center-x="-4.0243473"
       inkscape:transform-center-y="-4.2661419">
      <path
         style="fill:#070707;fill-opacity:1;stroke-width:0.257649"
         d="M 19.143778,9.300417 20.358224,6.7591103 21.5222,5.1078561 23.638517,4.4153949 c 0,0 2.409967,-0.5572623 3.59774,-0.9055264 1.123461,-0.3294075 2.198307,-0.8356369 3.3332,-1.1185916 0.616672,-0.1537505 1.459912,-0.4709084 1.878109,-0.3120089 0.127045,0.048272 -0.06882,0.2896924 -0.166105,0.3881142 -0.374895,0.3792842 -0.93263,0.4294605 -1.447462,0.616356 -0.798697,0.2899448 -1.631565,0.466647 -2.433767,0.7457279 -0.875176,0.3044681 -2.59249,1.0120588 -2.59249,1.0120588 L 22.897805,5.8535838 22.315819,6.8123764 21.42352,8.0590379 c 0,0 -1.018874,1.0857233 -1.529407,1.2625256 -0.253267,0.087709 -0.750335,-0.021147 -0.750335,-0.021147 z"
         id="path28"
         sodipodi:nodetypes="ccccsasassccccsc" />
      <path
         style="fill:#070707;fill-opacity:1;stroke-width:0.264583"
         d="M 18.753304,9.1040748 C 18.2921,7.8841372 20.736431,4.5347801 20.736431,4.5347801 c 0,0 0.129519,-0.19911 0.21744,-0.2740472 0.155118,-0.1322105 0.344418,-0.2159515 0.529561,-0.2948337 1.472851,-0.6275245 3.072657,-0.8299091 4.578321,-1.4000778 7.627318,-2.8883339 12.677364,-3.12372785 -1.366269,1.6548288 -0.617891,0.2102467 -1.240925,0.4045528 -1.853524,0.631222 -0.458509,0.1696542 -0.971193,0.2428653 -1.362885,0.5451541 -0.568038,0.438384 -1.30837,1.7444934 -1.30837,1.7444934 l -0.872247,2.1806167 c 0,0 -0.473423,-0.028326 -0.545154,-0.2180616 z"
         id="path29"
         sodipodi:nodetypes="scssssssccs" />
      <path
         style="display:inline;fill:#070707;fill-opacity:1;stroke-width:0.256029"
         d="m 22.000704,6.4518896 6.030329,-1.6555152 2.740303,-0.8977328 1.475548,-0.4752704 c 0,0 0.224758,-0.2541294 0.158095,-0.3696549 -0.145871,-0.2527929 -0.84317,-0.052807 -0.84317,-0.052807 l -9.184003,2.746137 z"
         id="path30"
         sodipodi:nodetypes="ccccsccc" />
      <path
         style="display:inline;fill:#070707;fill-opacity:1;stroke-width:0.264583"
         d="m 22.024229,6.9234581 2.344163,-0.4906388 2.603452,-0.597109 c 0,0 1.280726,-0.285798 1.978568,-0.4335626 0.558683,-0.1182985 1.3056,-0.3377596 1.636824,-0.5236581 0.331224,-0.1858985 0.298915,-0.180394 0.419662,-0.3607459 0.133388,-0.1992351 -1.496939,0.1040447 -2.237786,0.2213916 -0.508875,0.080603 -0.956818,0.2485554 -1.511404,0.3307986 -0.887641,0.1316342 -2.671254,0.3270924 -2.671254,0.3270924 l -2.289648,0.654185 z"
         id="path31"
         sodipodi:nodetypes="cccscsasccc" />
      <path
         style="fill:#070707;fill-opacity:1;stroke-width:0.213551"
         d="m 21.27958,7.3348418 c 0,0 2.709012,-0.5208296 2.873707,-0.5074833 0.164695,0.013347 1.797892,0.2283822 2.182299,-0.340391 0.07803,-0.1154583 -0.02318,-0.3151796 -0.134683,-0.3870863 -0.586726,-0.3783837 -2.051275,0.2569656 -2.051275,0.2569656 l -2.197213,0.010032 z"
         id="path32"
         inkscape:transform-center-x="-2.729372"
         inkscape:transform-center-y="-0.28121565"
         sodipodi:nodetypes="csssccc" />
      <path
         style="fill:#070707;fill-opacity:1;stroke-width:0.234394"
         d="m 21.116237,7.8853215 c 0,0 1.961523,-0.1461629 2.949007,-0.2279396 0.389435,-0.03225 0.63974,-0.033581 0.920991,-0.1702172 0.157447,-0.07649 0.28209,-0.2927395 0.17764,-0.3829359 C 24.906214,6.88173 23.499204,6.6405163 23.499204,6.6405163 l -0.92046,0.4261794 -1.04038,0.1948074 z"
         id="path33"
         inkscape:transform-center-x="-2.0796109"
         inkscape:transform-center-y="0.043157894"
         sodipodi:nodetypes="cssscccc" />
      <path
         style="fill:#070707;fill-opacity:1;stroke-width:0.248257"
         d="m 20.641078,8.4744333 1.337044,-0.153664 c 0,0 1.151103,0.1885994 1.633216,-0.078115 0.147118,-0.081388 0.367492,-0.2583391 0.30044,-0.4180855 C 23.773791,7.4958226 23.329096,7.7819478 22.889668,7.722863 22.450241,7.663778 20.778937,7.855858 20.778937,7.855858 Z"
         id="path34"
         sodipodi:nodetypes="ccssscc" />
    </g>
    <g
       id="g18"
       inkscape:label="body"
       style="display:inline;fill:#090909;fill-opacity:1"
       transform="rotate(-16.89989,44.659569,11.803052)"
       inkscape:transform-center-x="-1.3926566"
       inkscape:transform-center-y="-1.3981203">
      <path
         style="fill:#090909;fill-opacity:1;stroke-width:0.256831"
         d="m 10.63747,12.73548 c 0,0 1.929957,0.83174 2.857579,1.322954 0.636276,0.336934 1.852134,1.11128 1.852134,1.11128 0,0 2.751742,-0.687936 3.122168,-0.952526 0.370427,-0.264591 1.481708,-2.328397 1.481708,-2.328397 L 20.427322,9.8779029 20.321486,7.9728505 c 0,0 -2.281473,0.013837 -3.381212,-0.2461527 -1.139646,-0.2694246 -3.2472,-1.3409494 -3.2472,-1.3409494 z"
         id="path3"
         sodipodi:nodetypes="cscscccscc" />
      <path
         style="fill:#090909;fill-opacity:1;stroke-width:0.269312"
         d="M 28.385875,7.1261605 40.663201,4.4802548 40.721382,5.1681903 36.182845,6.5440615 40.139517,5.538617 40.081338,6.5440615 36.124664,7.5495056 38.56849,7.1790788 38.452119,8.0257685 27.571268,11.677118 Z"
         id="path5" />
      <path
         style="fill:#090909;fill-opacity:1;stroke-width:0.256831"
         d="M 6.3259016,9.2454284 C 6.4435867,9.1884241 6.9857812,8.5016605 7.3379549,8.1512126 7.7129653,7.7780398 8.0623312,7.4358683 8.5084051,7.0792689 8.9544791,6.7226694 9.4528866,6.2652771 10.018937,6.0296462 c 0.566064,-0.2356367 1.464924,-0.365689 1.809191,-0.3322748 1.333918,0.1294689 2.815728,0.8655678 3.466137,2.0373474 0.329694,0.5939791 0.161986,1.3928882 -0.05291,2.0373477 -0.26011,0.7800425 -0.825317,1.4523695 -1.42879,2.0108885 C 13.284158,12.271996 12.65195,12.674907 11.9532,12.84846 11.387471,13.577851 7.9234168,12.267761 7.846063,12.182912 7.8329052,12.101743 8.3604729,11.622725 8.6078771,10.961353 8.8552812,10.299981 8.7101866,9.6618511 8.4565704,9.5222564 8.2746693,9.4221349 6.6986333,9.5944158 6.3259016,9.2454284 Z"
         id="path2"
         sodipodi:nodetypes="cazassssccssc" />
      <path
         style="display:inline;fill:#090909;fill-opacity:1;stroke-width:0.256831"
         d="m 15.267803,15.123407 c 0,0 0.952922,0.495447 1.45525,0.681325 1.545254,0.571796 3.130074,1.100421 4.762631,1.322952 1.55552,0.21203 3.146755,0.147527 4.709712,0 1.126254,-0.106307 2.31811,-0.136981 3.333841,-0.635017 1.267928,-0.621694 2.456936,-1.588764 3.175087,-2.80466 0.905373,-1.532881 1.164199,-5.2124342 1.164199,-5.2124342 0,0 -1.201854,-0.2155755 -1.772757,-0.4233453 -0.24092,-0.087678 -0.455482,-0.2358223 -0.687935,-0.3439677 -0.444156,-0.2066371 -0.868768,-0.4874817 -1.349414,-0.5820991 -0.934749,-0.1840098 -1.906167,0.00355 -2.857576,0.052918 -1.449739,0.075219 -4.339286,0.3704268 -4.339286,0.3704268 l -2.857578,0.5291811 z"
         id="path4"
         sodipodi:nodetypes="cssssscssssccc" />
    </g>
    <g
       id="g11"
       inkscape:label="legL"
       inkscape:transform-center-x="-9.5834857"
       inkscape:transform-center-y="1.6245269"
       transform="matrix(0.57687176,-0.67605071,0.67605071,0.57687176,3.8922988,29.321161)"
       style="display:inline">
      <g
         id="g1"
         inkscape:label="thighPartL"
         inkscape:transform-center-x="-2.4258295"
         inkscape:transform-center-y="0.37210484"
         transform="rotate(4.3470701,29.640753,11.39128)">
        <path
           style="fill:#101010;fill-opacity:1;stroke-width:0.264583"
           d="m 28.395664,14.029742 c 0.266064,0.345682 0.62798,0.613868 0.993941,0.851268 0.545104,0.353611 1.116076,0.911161 1.761352,0.835015 0.28719,-0.03389 0.536206,-0.290687 0.67588,-0.543902 0.149271,-0.270615 0.05962,-0.615543 0.106357,-0.921042 0.08012,-0.523703 0.299915,-1.031397 0.298054,-1.561188 -0.0015,-0.425582 -0.09282,-0.856198 -0.248233,-1.252391 -0.111488,-0.284207 -0.203898,-0.650152 -0.480269,-0.779852 -0.438951,-0.205998 -0.982713,0.044 -1.440168,0.20477 -0.663647,0.233237 -1.417678,0.495409 -1.815774,1.075363 -0.252795,0.368275 -0.285625,0.879179 -0.222768,1.321425 0.04013,0.28232 0.197702,0.54456 0.371628,0.770534 z"
           id="path6"
           sodipodi:nodetypes="ssssssssssss"
           inkscape:transform-center-x="-1.644676"
           inkscape:transform-center-y="0.34274208" />
        <path
           style="fill:#626262;fill-opacity:1;stroke-width:0.264583"
           d="m 31.82296,15.136632 c 0,0 0.417469,0.346822 0.590894,0.553648 0.16763,0.199914 0.427382,0.655691 0.427382,0.655691 l -0.03294,0.384073 -0.566786,0.06746 -1.176847,-1.164906 z"
           id="path7"
           sodipodi:nodetypes="csccccc"
           inkscape:transform-center-x="-4.5138633"
           inkscape:transform-center-y="0.64939044" />
      </g>
      <g
         id="g2"
         inkscape:label="legPartL"
         inkscape:transform-center-x="1.6726365"
         inkscape:transform-center-y="2.8329254"
         transform="rotate(-7.4729482,33.780157,20.076692)">
        <path
           style="fill:#626262;fill-opacity:1;stroke-width:0.264583"
           d="m 32.725019,16.32515 0.135799,0.430706 c 0,0 -0.227664,0.26002 -0.382245,0.322342 -0.948696,0.382493 -2.058277,0.0051 -3.062039,0.202079 -0.599028,0.11753 -1.11539,0.660057 -1.71265,0.533847 -0.147147,-0.0311 -0.358587,-0.258608 -0.358587,-0.258608 l 0.211243,-0.413331 c 0,0 1.109831,-0.415273 1.690365,-0.514827 0.93495,-0.160328 1.906231,0.02388 2.84303,-0.125265 0.217026,-0.03455 0.635088,-0.176942 0.635088,-0.176942 z"
           id="path8"
           sodipodi:nodetypes="ccsssccssc"
           inkscape:transform-center-x="1.0899195"
           inkscape:transform-center-y="1.7153149" />
        <path
           style="fill:#626262;fill-opacity:1;stroke-width:0.303937"
           d="m 27.925105,17.542381 c 0,0 -0.76643,-0.733843 -1.257223,-0.777419 -0.492673,-0.04374 -1.379791,0.545838 -1.379791,0.545838 0,0 -0.275923,0.235075 -0.221522,0.378712 0.126134,0.03052 0.514609,-0.111291 0.514609,-0.111291 0,0 0.652681,-0.399718 1.010124,-0.370465 0.401486,0.03286 1.051836,0.595045 1.051836,0.595045 z"
           id="path9"
           sodipodi:nodetypes="cscccscc"
           inkscape:transform-center-x="2.9080507"
           inkscape:transform-center-y="4.4400712" />
        <path
           style="fill:#626262;fill-opacity:1;stroke-width:0.316356"
           d="m 27.848147,17.219199 c 0,0 -0.754134,-0.902048 -1.28814,-1.046922 -0.498168,-0.13515 -1.530526,0.235415 -1.530526,0.235415 0,0 -0.318206,0.264723 -0.297625,0.365017 0.06303,0.09193 0.590721,-0.03569 0.590721,-0.03569 0,0 0.754998,-0.240357 1.118042,-0.143517 0.43755,0.11671 1.082325,0.8211 1.082325,0.8211 z"
           id="path10"
           inkscape:transform-center-x="3.4606482"
           inkscape:transform-center-y="4.1724195"
           sodipodi:nodetypes="cscccscc" />
        <path
           style="fill:#626262;fill-opacity:1;stroke-width:0.316623"
           d="m 27.942379,17.493333 c 0,0 0.957609,0.0475 1.371327,0.260379 0.317991,0.163622 0.687978,0.741629 0.687978,0.741629 0,0 0.089,0.278733 0.04559,0.343405 -0.07309,-0.0091 -0.282434,-0.210883 -0.282434,-0.210883 0,0 -0.325754,-0.447528 -0.563243,-0.569568 -0.449096,-0.23078 -1.495811,-0.238918 -1.495811,-0.238918 z"
           id="path11"
           sodipodi:nodetypes="cscccscc"
           inkscape:transform-center-x="1.0375601"
           inkscape:transform-center-y="3.1580195" />
      </g>
    </g>
    <path
       style="fill:#ffffff;fill-opacity:0.113314;stroke-width:0.264583"
       d="m 6.9690529,12.815574 c 0,0 2.3140803,-1.182993 3.1454281,-1.847501 1.110907,-0.887962 2.560776,-2.8764882 2.560776,-2.8764882 l 3.414368,1.122532 c 0,0 -1.056417,-0.071886 -0.6801,0.4039244 0.611751,0.7734888 2.438497,1.5902148 3.807146,1.5439308 1.198158,-0.04052 2.101445,-0.573888 3.233969,-1.5736777 1.77795,-1.5695692 5.519115,-4.4901281 5.519115,-4.4901281 h 3.180508 L 32.413112,1.2160763 6.7819642,5.9868373 Z"
       id="path35"
       clip-path="url(#clipPath39)"
       sodipodi:nodetypes="csccsasccccc"
       inkscape:label="birdLight"
       transform="rotate(-8.1941623,57.569616,13.647437)"
       inkscape:transform-center-x="3.2002471"
       inkscape:transform-center-y="-3.5888188" />
    <g
       id="g24"
       inkscape:label="wingL"
       transform="matrix(0.78414909,-0.24736673,0.1676343,1.0955588,3.9805834,13.147445)"
       style="display:inline;fill:#111111;fill-opacity:1"
       inkscape:transform-center-x="-4.035431"
       inkscape:transform-center-y="-3.8459587">
      <path
         style="fill:#111111;fill-opacity:1;stroke-width:0.257649"
         d="M 19.143778,9.300417 20.358224,6.7591103 21.5222,5.1078561 23.638517,4.4153949 c 0,0 2.409967,-0.5572623 3.59774,-0.9055264 1.123461,-0.3294075 2.198307,-0.8356369 3.3332,-1.1185916 0.616672,-0.1537505 1.459912,-0.4709084 1.878109,-0.3120089 0.127045,0.048272 -0.06882,0.2896924 -0.166105,0.3881142 -0.374895,0.3792842 -0.93263,0.4294605 -1.447462,0.616356 -0.798697,0.2899448 -1.631565,0.466647 -2.433767,0.7457279 -0.875176,0.3044681 -2.59249,1.0120588 -2.59249,1.0120588 L 22.897805,5.8535838 22.315819,6.8123764 21.42352,8.0590379 c 0,0 -1.018874,1.0857233 -1.529407,1.2625256 -0.253267,0.087709 -0.750335,-0.021147 -0.750335,-0.021147 z"
         id="path19"
         sodipodi:nodetypes="ccccsasassccccsc" />
      <path
         style="fill:#111111;fill-opacity:1;stroke-width:0.264583"
         d="M 18.753304,9.1040748 C 18.2921,7.8841372 20.736431,4.5347801 20.736431,4.5347801 c 0,0 0.129519,-0.19911 0.21744,-0.2740472 0.155118,-0.1322105 0.344418,-0.2159515 0.529561,-0.2948337 1.472851,-0.6275245 3.072657,-0.8299091 4.578321,-1.4000778 7.627318,-2.8883339 12.677364,-3.12372785 -1.366269,1.6548288 -0.617891,0.2102467 -1.240925,0.4045528 -1.853524,0.631222 -0.458509,0.1696542 -0.971193,0.2428653 -1.362885,0.5451541 -0.568038,0.438384 -1.30837,1.7444934 -1.30837,1.7444934 l -0.872247,2.1806167 c 0,0 -0.473423,-0.028326 -0.545154,-0.2180616 z"
         id="path18"
         sodipodi:nodetypes="scssssssccs" />
      <path
         style="display:inline;fill:#111111;fill-opacity:1;stroke-width:0.256029"
         d="m 22.000704,6.4518896 6.030329,-1.6555152 2.740303,-0.8977328 1.475548,-0.4752704 c 0,0 0.224758,-0.2541294 0.158095,-0.3696549 -0.145871,-0.2527929 -0.84317,-0.052807 -0.84317,-0.052807 l -9.184003,2.746137 z"
         id="path20"
         sodipodi:nodetypes="ccccsccc" />
      <path
         style="display:inline;fill:#111111;fill-opacity:1;stroke-width:0.264583"
         d="m 22.024229,6.9234581 2.344163,-0.4906388 2.603452,-0.597109 c 0,0 1.280726,-0.285798 1.978568,-0.4335626 0.558683,-0.1182985 1.3056,-0.3377596 1.636824,-0.5236581 0.331224,-0.1858985 0.298915,-0.180394 0.419662,-0.3607459 0.133388,-0.1992351 -1.496939,0.1040447 -2.237786,0.2213916 -0.508875,0.080603 -0.956818,0.2485554 -1.511404,0.3307986 -0.887641,0.1316342 -2.671254,0.3270924 -2.671254,0.3270924 l -2.289648,0.654185 z"
         id="path21"
         sodipodi:nodetypes="cccscsasccc" />
      <path
         style="fill:#111111;fill-opacity:1;stroke-width:0.213551"
         d="m 21.27958,7.3348418 c 0,0 2.709012,-0.5208296 2.873707,-0.5074833 0.164695,0.013347 1.797892,0.2283822 2.182299,-0.340391 0.07803,-0.1154583 -0.02318,-0.3151796 -0.134683,-0.3870863 -0.586726,-0.3783837 -2.051275,0.2569656 -2.051275,0.2569656 l -2.197213,0.010032 z"
         id="path22"
         inkscape:transform-center-x="-2.729372"
         inkscape:transform-center-y="-0.28121565"
         sodipodi:nodetypes="csssccc" />
      <path
         style="fill:#111111;fill-opacity:1;stroke-width:0.234394"
         d="m 21.116237,7.8853215 c 0,0 1.961523,-0.1461629 2.949007,-0.2279396 0.389435,-0.03225 0.63974,-0.033581 0.920991,-0.1702172 0.157447,-0.07649 0.28209,-0.2927395 0.17764,-0.3829359 C 24.906214,6.88173 23.499204,6.6405163 23.499204,6.6405163 l -0.92046,0.4261794 -1.04038,0.1948074 z"
         id="path23"
         inkscape:transform-center-x="-2.0796109"
         inkscape:transform-center-y="0.043157894"
         sodipodi:nodetypes="cssscccc" />
      <path
         style="fill:#111111;fill-opacity:1;stroke-width:0.248257"
         d="m 20.641078,8.4744333 1.337044,-0.153664 c 0,0 1.151103,0.1885994 1.633216,-0.078115 0.147118,-0.081388 0.367492,-0.2583391 0.30044,-0.4180855 C 23.773791,7.4958226 23.329096,7.7819478 22.889668,7.722863 22.450241,7.663778 20.778937,7.855858 20.778937,7.855858 Z"
         id="path24"
         sodipodi:nodetypes="ccssscc" />
    </g>
    <ellipse
       style="fill:#000000;fill-opacity:1;stroke-width:0.264583"
       id="path26"
       cx="5.479835"
       cy="20.85681"
       rx="0.60358071"
       ry="0.57877606"
       transform="rotate(-16.89989)"
       inkscape:transform-center-x="10.390623"
       inkscape:transform-center-y="2.2864757" />
    <ellipse
       style="fill:#ffffff;fill-opacity:1;stroke-width:0.264583"
       id="path27"
       cx="5.2340822"
       cy="20.637491"
       rx="0.21047476"
       ry="0.19001193"
       transform="rotate(-16.89989)"
       inkscape:transform-center-x="10.689519"
       inkscape:transform-center-y="2.1480691" />
  </g>
</svg>
