<?xml version="1.0" encoding="UTF-8" standalone="no"?>
<!-- Created with Inkscape (http://www.inkscape.org/) -->

<svg
   width="1140"
   height="640"
   viewBox="0 0 301.62499 169.33333"
   version="1.1"
   id="svg1"
   inkscape:version="1.3.2 (091e20e, 2023-11-25, custom)"
   sodipodi:docname="bg-city-mountains-svg.svg"
   inkscape:export-filename="..\bg-city-mountains.png"
   inkscape:export-xdpi="96"
   inkscape:export-ydpi="96"
   xmlns:inkscape="http://www.inkscape.org/namespaces/inkscape"
   xmlns:sodipodi="http://sodipodi.sourceforge.net/DTD/sodipodi-0.dtd"
   xmlns="http://www.w3.org/2000/svg"
   xmlns:svg="http://www.w3.org/2000/svg">
  <sodipodi:namedview
     id="namedview1"
     pagecolor="#ffffff"
     bordercolor="#000000"
     borderopacity="0.25"
     inkscape:showpageshadow="2"
     inkscape:pageopacity="0.0"
     inkscape:pagecheckerboard="0"
     inkscape:deskcolor="#d1d1d1"
     inkscape:document-units="mm"
     inkscape:zoom="0.42898109"
     inkscape:cx="488.36652"
     inkscape:cy="220.28943"
     inkscape:window-width="1600"
     inkscape:window-height="877"
     inkscape:window-x="-8"
     inkscape:window-y="-8"
     inkscape:window-maximized="1"
     inkscape:current-layer="layer1" />
  <defs
     id="defs1" />
  <g
     inkscape:groupmode="layer"
     id="layer3"
     inkscape:label="Layer 3"
     style="display:inline" />
  <g
     inkscape:groupmode="layer"
     id="layer2"
     inkscape:label="Layer 2"
     style="display:inline;opacity:0.445" />
  <g
     inkscape:label="Layer 1"
     inkscape:groupmode="layer"
     id="layer1"
     style="opacity:1">
    <path
       style="display:inline;fill:#718ecc;fill-opacity:1;stroke-width:0.25883"
       d="m 96.945999,148.28194 c 0,0 -25.876651,15.70044 34.223961,2.61674 60.10061,-13.0837 46.32989,-12.86229 69.28264,-20.06168 4.76165,-1.49354 9.24385,-4.27749 14.19043,-4.79735 8.63678,-0.90767 17.68887,0.0408 25.87665,3.05286 4.65995,1.71426 8.48797,5.30478 12.52096,8.28634 6.79344,5.02235 12.79183,11.16016 19.61618,16.13657 6.96592,5.07964 14.64572,9.01592 21.703,13.95594 3.14423,2.20094 9.18204,6.97798 9.18204,6.97798 l -162.7725,3.48898 -70.117377,-14.82819 z"
       id="path2"
       sodipodi:nodetypes="cssssssscccc" />
    <path
       style="display:inline;fill:#7b9dd0;fill-opacity:1;stroke-width:0.264583"
       d="m -1.7444934,126.47577 c 0,0 8.839232,-3.53034 13.0837004,-5.6696 5.700173,-2.87295 10.578653,-7.39986 16.572686,-9.59472 9.291733,-3.40239 19.367635,-6.14904 29.220265,-5.23348 4.48961,0.4172 8.605358,2.79958 12.647578,4.79736 4.448312,2.19848 8.373906,5.329 12.647576,7.85022 7.175293,4.23301 14.493838,8.21984 21.806168,12.21145 6.79289,3.70806 13.507,7.58319 20.4978,10.90309 9.82875,4.66763 20.04713,8.46648 30.09251,12.64757 21.48457,8.94231 64.54625,26.60353 64.54625,26.60353 l -232.889864,4.79735 z"
       id="path1"
       sodipodi:nodetypes="cassssaaaccc" />
    <path
       style="display:inline;fill:#7b9dd0;fill-opacity:1;stroke-width:0.264583"
       d="m 126.23598,184.26633 c 0,0 113.0227,-32.27404 175.28893,-58.78933 3.42612,-1.45897 6.69857,-3.10016 9.79006,-4.51664 5.84681,-2.67893 10.65575,-7.55405 16.64979,-9.74891 9.29173,-3.40239 19.36763,-6.14904 29.22026,-5.23348 4.48961,0.4172 8.60536,2.79958 12.64758,4.79736 4.44831,2.19848 8.37391,5.329 12.64758,7.85022 7.17529,4.23301 14.49383,8.21984 21.80616,12.21145 6.79289,3.70806 13.507,7.58319 20.4978,10.90309 9.82875,4.66763 20.04713,8.46648 30.09251,12.64757 21.48457,8.94231 64.54625,26.60353 64.54625,26.60353 l -232.88986,4.79735 z"
       id="path4"
       sodipodi:nodetypes="cssssssaaaccc" />
  </g>
</svg>
