<?xml version="1.0" encoding="UTF-8" standalone="no"?>
<!-- Created with Inkscape (http://www.inkscape.org/) -->

<svg
   width="1140"
   height="640"
   viewBox="0 0 301.62501 169.33333"
   version="1.1"
   id="svg1"
   inkscape:export-filename="..\bg-city-sky.png"
   inkscape:export-xdpi="96"
   inkscape:export-ydpi="96"
   inkscape:version="1.3.2 (091e20e, 2023-11-25, custom)"
   sodipodi:docname="bg-city-sky-svg.svg"
   xmlns:inkscape="http://www.inkscape.org/namespaces/inkscape"
   xmlns:sodipodi="http://sodipodi.sourceforge.net/DTD/sodipodi-0.dtd"
   xmlns="http://www.w3.org/2000/svg"
   xmlns:svg="http://www.w3.org/2000/svg">
  <sodipodi:namedview
     id="namedview1"
     pagecolor="#ffffff"
     bordercolor="#000000"
     borderopacity="0.25"
     inkscape:showpageshadow="2"
     inkscape:pageopacity="0.0"
     inkscape:pagecheckerboard="true"
     inkscape:deskcolor="#d1d1d1"
     inkscape:document-units="mm"
     inkscape:zoom="0.64153346"
     inkscape:cx="498.02547"
     inkscape:cy="208.09515"
     inkscape:window-width="1600"
     inkscape:window-height="877"
     inkscape:window-x="-8"
     inkscape:window-y="-8"
     inkscape:window-maximized="1"
     inkscape:current-layer="layer2" />
  <defs
     id="defs1" />
  <g
     inkscape:label="Layer 1"
     inkscape:groupmode="layer"
     id="layer1"
     transform="translate(-137.81496,-127.34801)">
    <rect
       style="fill:#84c1eb;fill-opacity:1;stroke-width:0.0722622"
       id="rect2"
       width="312.34143"
       height="180.48746"
       x="132.29707"
       y="121.5787" />
  </g>
  <g
     inkscape:groupmode="layer"
     id="layer2"
     inkscape:label="clouds">
    <path
       style="display:inline;opacity:0.232;fill:#214f79;fill-opacity:1;stroke-width:0.123353"
       d="m 27.492917,68.564672 c 2.02654,-0.177649 4.200575,0.456383 6.161167,0.138015 3.21933,-0.522764 5.843698,-1.852143 8.036304,-3.174376 2.309916,-1.392975 2.197603,-3.764501 5.08966,-4.830572 3.462223,-1.276246 8.35466,-1.32453 12.590211,-1.104131 4.66898,0.242952 8.798879,1.686635 13.125969,2.622311 3.79544,0.820716 7.23752,2.15114 11.25082,2.622311 3.74462,0.439628 7.69294,-0.03579 11.51871,0.138016 4.679672,0.212603 10.379222,-0.480921 13.929592,1.104131 1.62239,0.724309 2.1019,2.074517 1.87514,3.174375 -0.19422,0.942011 -1.06837,2.02716 -2.67877,2.484295 -4.15164,1.17851 -9.47433,-0.620239 -14.197472,-0.414049 -5.56849,0.243094 -10.88406,1.3101 -16.34049,1.932229 -5.43759,0.619981 -10.77339,1.716207 -16.340483,1.794213 -4.607889,0.06457 -9.08176,-0.835265 -13.661719,-1.104131 -4.98088,-0.292401 -10.071393,-1.021232 -15.001102,-0.552065 -2.906923,0.276656 -5.112562,2.156959 -8.036305,1.932229 -2.37631,-0.182654 -4.642654,-1.302481 -5.357536,-2.484294 -0.573533,-0.948142 0.07999,-2.146506 1.339384,-2.898344 1.570857,-0.937779 4.326714,-1.172389 6.69692,-1.380163 z"
       id="path4"
       sodipodi:nodetypes="sssssassssssaassssss" />
    <path
       style="opacity:0.22;fill:#30476a;fill-opacity:1;stroke-width:0.242686"
       d="m 141.19227,47.578331 c 0.64338,1.657043 0.80936,3.582659 2.84522,4.828438 2.27189,1.390208 5.9669,1.836683 9.24695,2.213032 2.78843,0.319945 5.69043,0 8.53565,0 4.97913,0 9.96316,-0.124813 14.93739,0 5.35056,0.134256 10.67407,0.509226 16.00434,0.804741 3.3225,0.184203 6.62376,0.694881 9.95827,0.603555 7.61712,-0.20862 14.80174,-2.290209 22.40608,-2.615405 4.49833,-0.192369 9.02558,0.150915 13.51479,0.402371 5.72264,0.320543 11.32807,1.243498 17.07131,1.408293 5.45147,0.156422 11.1638,0.543285 16.35998,-0.402369 3.50576,-0.638012 7.90368,-1.480436 9.24698,-3.420143 2.3178,-3.346875 -0.46907,-7.741724 -4.6235,-10.461613 -4.27487,-2.798741 -11.71162,-3.543403 -18.13825,-4.224881 -5.82723,-0.617915 -11.85742,0.316953 -17.78261,0.201184 -6.66128,-0.130151 -13.61576,0.223822 -19.91652,-1.005923 -4.94243,-0.964635 -8.35017,-3.667841 -13.15913,-4.828438 -3.80866,-0.919182 -7.9577,-1.480167 -12.09218,-1.609477 -3.9348,-0.123065 -8.04049,0.03131 -11.73652,0.804738 -2.80623,0.587227 -5.08369,1.794548 -7.46869,2.816589 -3.48488,1.493372 -6.14721,3.616545 -9.95826,4.828436 -5.32685,1.693909 -11.85184,1.803604 -17.42695,3.218957 -3.00516,0.762918 -7.05555,1.151993 -8.53566,2.816588 -0.96477,1.085017 0.25071,2.435065 0.71131,3.621327 z"
       id="path5"
       sodipodi:nodetypes="ssaassasaaaaaaaaaaasssss" />
    <path
       style="fill:#ffffff;fill-opacity:1;stroke-width:0.264583;opacity:0.646"
       d="m 11.135428,0 c 1.604777,2.6718697 3.684157,5.1529077 6.186349,7.0111958 2.913771,2.1639534 6.363288,3.7135882 9.898159,4.5366562 4.822,1.122767 9.900502,0.61755 14.847239,0.412423 3.731444,-0.154732 7.532537,-2.2205331 11.135426,-1.23727 1.326243,0.361944 2.172533,1.687063 3.299389,2.47454 2.687969,1.878424 8.248464,5.361502 8.248464,5.361502 0,0 16.084508,2.47454 18.559047,2.062117 2.47454,-0.412423 11.172537,-3.106834 16.496932,-5.361503 4.870087,-2.062289 8.742357,-7.1201278 14.022387,-7.4236188 6.04047,-0.3472002 11.0707,5.0119958 16.90936,6.5987728 6.71749,1.825617 13.95745,5.312491 20.62116,3.299386 2.32825,-0.703363 3.20648,-3.821546 5.3615,-4.949079 3.36907,-1.76274 7.3336,-2.411194 11.13543,-2.47454 4.47522,-0.07457 8.72713,2.694766 13.19755,2.47454 3.4327,-0.169105 6.92067,-1.170403 9.89816,-2.8869633 3.62227,-2.0882847 7.11702,-4.9656646 9.07331,-8.6608889 1.17378,-2.21713477 1.23727,-7.4236188 1.23727,-7.4236188 L 8.6608887,-6.5987723 c 0,0 1.264987,4.5849316 2.4745393,6.5987723 z"
       id="path6"
       sodipodi:nodetypes="sssasacsassaaasssccs" />
    <path
       style="opacity:0.5;fill:#ffffff;fill-opacity:1;stroke-width:0.264583"
       d="m 284.77826,89.083422 c -1.15338,2.17197 -4.20534,2.73438 -6.59877,3.29939 -3.07733,0.72646 -6.3799,0.59288 -9.48573,0 -3.84912,-0.73477 -7.0885,-3.55295 -10.92922,-4.33044 -3.03243,-0.61386 -6.18883,-0.34782 -9.27952,-0.20621 -4.83785,0.22166 -9.61945,1.13378 -14.43482,1.64969 -4.80809,0.51513 -9.66547,2.24125 -14.43481,1.44348 -3.73121,-0.62412 -9.02736,-1.18411 -10.31058,-4.74287 -0.64657,-1.79313 0.97165,-3.98281 2.47454,-5.15529 2.43398,-1.89886 6.02669,-1.82876 9.07331,-1.8559 3.04662,-0.0271 5.73673,1.5605 8.8671,1.64969 3.13037,0.0892 6.55826,-0.35005 9.69195,-1.23727 3.04879,-0.86318 5.51729,-3.52048 8.66088,-3.91802 2.76922,-0.3502 5.63854,0.45379 8.24847,1.44348 1.96212,0.74404 3.2674,3.16434 5.36151,3.29939 3.0088,0.19404 5.24292,-3.47253 8.24846,-3.71181 2.62622,-0.20908 5.13091,1.22779 7.62984,2.06211 2.10665,0.70335 4.82364,0.72076 6.18633,2.47454 1.61643,2.08035 2.26666,5.50923 1.03106,7.83604 z"
       id="path7"
       sodipodi:nodetypes="saaaaaaaazzaaaassss" />
    <path
       style="opacity:0.195;fill:#ffffff;fill-opacity:1;stroke-width:0.264583"
       d="m 93.620081,106.19899 c 0,0 -0.73945,3.47406 0.20621,4.74287 1.13019,1.51636 3.4703,1.85817 5.36151,1.85591 3.130369,-0.004 5.698469,-3.06813 8.867099,-3.09318 3.16862,-0.025 5.00781,-0.14086 7.42362,0.41243 1.74206,0.39898 3.19662,1.71162 4.94908,2.06211 2.69609,0.53922 5.51114,0.25837 8.24846,0 2.92586,-0.27617 5.76044,-1.17604 8.66089,-1.64969 3.01252,-0.49195 6.02866,-1.45499 9.07331,-1.23727 2.99484,0.21415 5.76059,1.6979 8.66089,2.47454 2.73766,0.73308 5.4146,2.09891 8.24847,2.06211 2.56801,-0.0334 5.44132,-0.42922 7.42362,-2.06211 1.42361,-1.17268 2.32644,-3.11062 2.47454,-4.94908 0.18504,-2.29705 -0.14546,-5.31927 -2.06212,-6.59877 -1.26291,-0.843073 -3.04686,0.11882 -4.53666,0.41242 -1.83457,0.36154 -3.51243,1.37165 -5.3615,1.64969 -2.17514,0.32707 -4.47899,0.58715 -6.59877,0 -2.31756,-0.64193 -3.89314,-2.987683 -6.18635,-3.711813 -1.83999,-0.58102 -3.94897,-1.03905 -5.77393,-0.41242 -1.74928,0.60065 -2.8761,2.346913 -4.12423,3.711813 -0.92773,1.01452 -1.11245,3.11327 -2.47454,3.29939 -2.23399,0.30525 -3.17876,-3.55897 -5.3615,-4.12424 -2.69146,-0.69701 -5.70066,0.12441 -8.24847,1.23727 -0.80667,0.35235 -1.18313,1.60218 -2.06211,1.6497 -1.78984,0.0968 -2.79635,-2.45778 -4.53666,-2.88697 -1.60725,-0.39638 -3.44733,-0.28408 -4.94908,0.41243 -1.41097,0.65441 -3.29938,3.29938 -3.29938,3.29938"
       id="path1"
       sodipodi:nodetypes="caazsaaaaaaaaaaaaaaaaaasaac" />
    <path
       style="fill:#36190f;stroke-width:0.264583"
       d="m 28.044783,120.84002 c 0,0 4.124232,0.82485 0,0 z"
       id="path2" />
  </g>
</svg>
